HIERARCHY
ROOT Hips
{
	OFFSET 0.000000 0.000000 0.000000
	CHANNELS 6 Xposition Yposition Zposition Zrotation Yrotation Xrotation 
	JOINT LHipJoint
	{
		OFFSET 0.000000 0.000000 0.000000
		CHANNELS 3 Zrotation Yrotation Xrotation
		JOINT LeftUpLeg
		{
			OFFSET 1.363060 -1.794630 0.839290
			CHANNELS 3 Zrotation Yrotation Xrotation
			JOINT LeftLeg
			{
				OFFSET 2.448110 -6.726130 0.000000
				CHANNELS 3 Zrotation Yrotation Xrotation
				JOINT LeftFoot
				{
					OFFSET 2.562200 -7.039590 0.000000
					CHANNELS 3 Zrotation Yrotation Xrotation
					JOINT LeftToeBase
					{
						OFFSET 0.157640 -0.433110 2.322550
						CHANNELS 3 Zrotation Yrotation Xrotation
						End Site
						{
							OFFSET 0.000000 0.000000 0.000000
						}
					}
				}
			}
		}
	}
	JOINT RHipJoint
	{
		OFFSET 0.000000 0.000000 0.000000
		CHANNELS 3 Zrotation Yrotation Xrotation
		JOINT RightUpLeg
		{
			OFFSET -1.305520 -1.794630 0.839290
			CHANNELS 3 Zrotation Yrotation Xrotation
			JOINT RightLeg
			{
				OFFSET -2.542530 -6.985550 0.000000
				CHANNELS 3 Zrotation Yrotation Xrotation
				JOINT RightFoot
				{
					OFFSET -2.568260 -7.056230 0.000000
					CHANNELS 3 Zrotation Yrotation Xrotation
					JOINT RightToeBase
					{
						OFFSET -0.164730 -0.452590 2.363150
						CHANNELS 3 Zrotation Yrotation Xrotation
						End Site
						{
							OFFSET 0.000000 0.000000 0.000000
						}
					}
				}
			}
		}
	}
	JOINT LowerBack
	{
		OFFSET 0.000000 0.000000 0.000000
		CHANNELS 3 Zrotation Yrotation Xrotation
		JOINT Spine
		{
			OFFSET 0.028270 2.035590 -0.193380
			CHANNELS 3 Zrotation Yrotation Xrotation
			JOINT Spine1
			{
				OFFSET 0.056720 2.048850 -0.042750
				CHANNELS 3 Zrotation Yrotation Xrotation
				JOINT Neck
				{
					OFFSET 0.000000 0.000000 0.000000
					CHANNELS 3 Zrotation Yrotation Xrotation
					JOINT Neck1
					{
						OFFSET -0.054170 1.746240 0.172020
						CHANNELS 3 Zrotation Yrotation Xrotation
						JOINT Head
						{
							OFFSET 0.104070 1.761360 -0.123970
							CHANNELS 3 Zrotation Yrotation Xrotation
							End Site
							{
								OFFSET 0.000000 0.000000 0.000000
							}
						}
					}
				}
				JOINT LeftShoulder
				{
					OFFSET 0.000000 0.000000 0.000000
					CHANNELS 3 Zrotation Yrotation Xrotation
					JOINT LeftArm
					{
						OFFSET 3.362410 1.200890 -0.311210
						CHANNELS 3 Zrotation Yrotation Xrotation
						JOINT LeftForeArm
						{
							OFFSET 4.983000 -0.000000 -0.000000
							CHANNELS 3 Zrotation Yrotation Xrotation
							JOINT LeftHand
							{
								OFFSET 3.483560 -0.000000 -0.000000
								CHANNELS 3 Zrotation Yrotation Xrotation
								JOINT LeftFingerBase
								{
									OFFSET 0.000000 0.000000 0.000000
									CHANNELS 3 Zrotation Yrotation Xrotation
									JOINT LeftHandIndex1
									{
										OFFSET 0.715260 -0.000000 -0.000000
										CHANNELS 3 Zrotation Yrotation Xrotation
										End Site
										{
											OFFSET 0.000000 0.000000 0.000000
										}
									}
								}
								JOINT LThumb
								{
									OFFSET 0.000000 0.000000 0.000000
									CHANNELS 3 Zrotation Yrotation Xrotation
									End Site
									{
										OFFSET 0.000000 0.000000 0.000000
									}
								}
							}
						}
					}
				}
				JOINT RightShoulder
				{
					OFFSET 0.000000 0.000000 0.000000
					CHANNELS 3 Zrotation Yrotation Xrotation
					JOINT RightArm
					{
						OFFSET -3.136600 1.374050 -0.404650
						CHANNELS 3 Zrotation Yrotation Xrotation
						JOINT RightForeArm
						{
							OFFSET -5.241900 -0.000000 -0.000000
							CHANNELS 3 Zrotation Yrotation Xrotation
							JOINT RightHand
							{
								OFFSET -3.444170 -0.000000 -0.000000
								CHANNELS 3 Zrotation Yrotation Xrotation
								JOINT RightFingerBase
								{
									OFFSET 0.000000 0.000000 0.000000
									CHANNELS 3 Zrotation Yrotation Xrotation
									JOINT RightHandIndex1
									{
										OFFSET -0.622530 -0.000000 -0.000000
										CHANNELS 3 Zrotation Yrotation Xrotation
										End Site
										{
											OFFSET 0.000000 0.000000 0.000000
										}
									}
								}
								JOINT RThumb
								{
									OFFSET 0.000000 0.000000 0.000000
									CHANNELS 3 Zrotation Yrotation Xrotation
									End Site
									{
										OFFSET 0.000000 0.000000 0.000000
									}
								}
							}
						}
					}
				}
			}
		}
	}
}
MOTION
Frames: 4
Frame Time: 0.008333
-1.042701 16.899675 -0.735932 41.105127 84.598832 44.456927 -9.745868 0.969289 2.623561 -12.543827 0.475307 -28.373458 -2.034634 0.563576 22.812572 0.719380 4.528180 -0.887335 0.677900 -0.000001 -22.787800 10.425963 -4.180748 -1.514486 0.271170 -12.146935 12.087410 0.956587 -2.110616 20.894941 -0.131533 1.146788 6.289686 0.121200 -0.000000 -79.414900 -4.381500 0.201111 -2.820512 -1.376441 0.404118 -2.832423 -4.966109 0.326999 2.753010 9.171406 -11.952346 -9.401181 -1.886866 -0.128097 -0.443899 0.000000 0.000000 0.000000 -6.235708 26.066966 0.889768 -77.867390 25.935419 5.959989 -3.506813 -23.663153 -0.014046 -4.297398 4.999319 -0.190729 -0.046440 -0.127828 -0.000000 0.000000 0.000000 0.000000 0.000000 0.000000 0.000000 11.191823 -6.549160 -0.230169 47.162696 12.784122 7.757171 1.839028 48.353030 0.010128 1.785212 4.738228 0.074759 0.050459 -0.149708 0.000000 0.000000 0.000000 0.000000 0.000000 0.000000 0.000000 
-0.858937 16.899723 -0.730286 39.558392 84.063722 42.765176 -9.764484 1.063811 2.516961 -12.807440 0.967469 -27.995858 -2.013466 0.623982 23.722636 0.773179 4.826732 -1.385157 0.652900 0.000000 -22.199700 10.554759 -4.214656 -1.500886 -0.546844 -12.310921 11.480630 0.769620 -2.289420 22.832938 -0.125943 1.645232 8.010192 0.323800 0.000001 -81.172300 -4.628152 0.164461 -2.796915 -1.429718 0.385485 -2.838038 -4.997610 0.308200 2.729778 9.220877 -11.988870 -9.395127 -1.911048 -0.130119 -0.442499 0.000000 0.000000 0.000000 -6.179682 25.982830 0.869543 -77.516106 25.489655 5.906299 -3.524794 -23.548665 -0.013803 -4.201243 4.898508 -0.182519 -0.048461 -0.126439 -0.000000 0.000000 0.000000 0.000000 0.000000 0.000000 0.000000 11.318357 -6.564446 -0.263329 47.884084 12.315917 7.867241 1.870282 48.206476 0.010229 1.776308 4.744256 0.074374 0.052159 -0.147978 0.000000 0.000000 0.000000 0.000000 0.000000 0.000000 0.000000 
-0.677521 16.901065 -0.723890 38.230293 83.528126 41.296155 -9.775267 1.160880 2.404642 -13.081690 1.525257 -27.563354 -2.012234 0.667996 24.485517 0.823814 5.081442 -2.032196 0.603500 0.000000 -21.740100 10.692103 -4.235380 -1.491900 -1.354844 -12.554032 10.727167 0.565171 -2.457120 24.921942 -0.161454 1.983550 9.825331 0.522400 -0.000000 -82.420000 -4.862824 0.120094 -2.762345 -1.480122 0.358560 -2.842014 -5.028728 0.281319 2.707673 9.264735 -12.019373 -9.395119 -1.937476 -0.132223 -0.442822 0.000000 0.000000 0.000000 -6.109820 25.874451 0.857892 -77.186255 24.949916 5.723638 -3.546358 -23.327993 -0.013467 -4.048040 4.817962 -0.172806 -0.051033 -0.124686 -0.000000 0.000000 0.000000 0.000000 0.000000 0.000000 0.000000 11.441209 -6.575395 -0.297631 48.670127 11.820939 7.907404 1.904233 48.008167 0.010300 1.740278 4.752053 0.072791 0.054232 -0.146380 0.000000 0.000000 0.000000 0.000000 0.000000 0.000000 0.000000 
-0.498852 16.903454 -0.716831 37.051855 82.996903 39.982791 -9.779871 1.258842 2.291007 -13.351352 2.119840 -27.074646 -2.028389 0.696848 25.099392 0.870141 5.284404 -2.799266 0.531000 -0.000000 -21.422799 10.834165 -4.237960 -1.490241 -2.134835 -12.870804 9.840897 0.348095 -2.609054 27.140671 -0.243158 2.092906 11.694962 0.682099 0.000000 -83.076000 -5.082220 0.067982 -2.716169 -1.526741 0.323051 -2.844254 -5.059134 0.246025 2.685594 9.303038 -12.042454 -9.400713 -1.965809 -0.134387 -0.444731 0.000000 0.000000 0.000000 -6.023032 25.734436 0.855223 -76.883525 24.326586 5.404515 -3.571072 -23.012149 -0.013025 -3.830887 4.754933 -0.161090 -0.054152 -0.122515 -0.000000 0.000000 0.000000 0.000000 0.000000 0.000000 0.000000 11.558068 -6.581748 -0.331843 49.517503 11.299680 7.873854 1.940985 47.759371 0.010355 1.683723 4.762918 0.070510 0.056583 -0.144915 0.000000 0.000000 0.000000 0.000000 0.000000 0.000000 0.000000 
